<mxfile host="Electron" modified="2024-03-23T13:51:57.396Z" agent="Mozilla/5.0 (Macintosh; Intel Mac OS X 10_15_7) AppleWebKit/537.36 (KHTML, like Gecko) draw.io/24.0.4 Chrome/120.0.6099.109 Electron/28.1.0 Safari/537.36" etag="KvZ2HGeT6pIKHa-Boncl" version="24.0.4" type="device" pages="2">
  <diagram name="main" id="m0zTKrYATkNEm8Ja8VeW">
    <mxGraphModel dx="1114" dy="1824" grid="1" gridSize="10" guides="1" tooltips="1" connect="1" arrows="1" fold="1" page="1" pageScale="1" pageWidth="850" pageHeight="1100" math="0" shadow="0">
      <root>
        <mxCell id="0" />
        <mxCell id="1" parent="0" />
        <mxCell id="i6AOonY0CT-YcksU9l_V-1" style="edgeStyle=orthogonalEdgeStyle;rounded=1;orthogonalLoop=1;jettySize=auto;html=1;exitX=1;exitY=0.5;exitDx=0;exitDy=0;exitPerimeter=0;entryX=0;entryY=0.5;entryDx=0;entryDy=0;entryPerimeter=0;strokeWidth=2;" parent="1" source="i6AOonY0CT-YcksU9l_V-18" target="i6AOonY0CT-YcksU9l_V-5" edge="1">
          <mxGeometry relative="1" as="geometry" />
        </mxCell>
        <mxCell id="i6AOonY0CT-YcksU9l_V-3" value="grep" style="rhombus;whiteSpace=wrap;html=1;rounded=1;fillColor=#0050ef;fontColor=#ffffff;strokeColor=#001DBC;fontStyle=1;glass=0;sketch=0;fontSize=12;points=[[0,0.5,0,0,0],[0.5,0,0,0,0],[0.5,1,0,0,0],[1,0.5,0,0,0]];shadow=1;" parent="1" vertex="1">
          <mxGeometry x="740" y="-132" width="40" height="40" as="geometry" />
        </mxCell>
        <mxCell id="i6AOonY0CT-YcksU9l_V-4" value="$ ps" style="rounded=1;whiteSpace=wrap;html=1;sketch=0;container=1;recursiveResize=0;verticalAlign=top;arcSize=6;fontStyle=1;autosize=0;points=[];absoluteArcSize=1;shadow=1;strokeColor=#666666;fillColor=#FFFFFF;fontColor=#333333;connectable=0;gradientColor=#FFF2CC;" parent="1" vertex="1">
          <mxGeometry x="203" y="-43" width="127" height="87" as="geometry">
            <mxRectangle x="-98" y="-1230" width="99" height="26" as="alternateBounds" />
          </mxGeometry>
        </mxCell>
        <mxCell id="i6AOonY0CT-YcksU9l_V-5" value="" style="rounded=1;whiteSpace=wrap;html=1;sketch=0;points=[[0,0.5,0,0,0],[1,0.5,0,0,0]];arcSize=50;" parent="i6AOonY0CT-YcksU9l_V-4" vertex="1">
          <mxGeometry x="-13" y="36" width="39.25" height="25" as="geometry" />
        </mxCell>
        <mxCell id="i6AOonY0CT-YcksU9l_V-6" value="" style="rounded=1;whiteSpace=wrap;html=1;sketch=0;points=[[0,0.5,0,0,0],[1,0.5,0,0,0]];fillColor=#1ba1e2;fontColor=#ffffff;strokeColor=#006EAF;arcSize=50;" parent="i6AOonY0CT-YcksU9l_V-4" vertex="1">
          <mxGeometry x="107" y="18" width="35.25" height="25" as="geometry" />
        </mxCell>
        <mxCell id="hAjOqEyjSD74-ecobbq9-2" value="✗" style="rounded=1;whiteSpace=wrap;html=1;sketch=0;points=[[0,0.5,0,0,0],[1,0.5,0,0,0]];fillColor=#1ba1e2;fontColor=#ffffff;strokeColor=#006EAF;arcSize=50;fontFamily=Helvetica;fontSize=11;textOpacity=30;opacity=30;" vertex="1" parent="i6AOonY0CT-YcksU9l_V-4">
          <mxGeometry x="107" y="53" width="35.25" height="25" as="geometry" />
        </mxCell>
        <mxCell id="i6AOonY0CT-YcksU9l_V-16" style="edgeStyle=orthogonalEdgeStyle;rounded=1;orthogonalLoop=1;jettySize=auto;html=1;exitX=1;exitY=0.5;exitDx=0;exitDy=0;exitPerimeter=0;entryX=0;entryY=0.5;entryDx=0;entryDy=0;entryPerimeter=0;curved=0;strokeWidth=2;" parent="1" source="i6AOonY0CT-YcksU9l_V-6" target="hAjOqEyjSD74-ecobbq9-9" edge="1">
          <mxGeometry relative="1" as="geometry">
            <Array as="points">
              <mxPoint x="400" y="-12" />
              <mxPoint x="400" y="-200" />
            </Array>
          </mxGeometry>
        </mxCell>
        <mxCell id="i6AOonY0CT-YcksU9l_V-18" value="" style="rhombus;whiteSpace=wrap;html=1;rounded=1;fontStyle=1;glass=0;sketch=0;fontSize=12;points=[[0,0.5,0,0,0],[0.5,0,0,0,0],[0.5,1,0,0,0],[1,0.5,0,0,0]];shadow=1;" parent="1" vertex="1">
          <mxGeometry x="100" y="-14.5" width="40" height="40" as="geometry" />
        </mxCell>
        <mxCell id="i6AOonY0CT-YcksU9l_V-20" value="$ grep -v sh" style="rounded=1;whiteSpace=wrap;html=1;sketch=0;container=1;recursiveResize=0;verticalAlign=top;arcSize=6;fontStyle=1;autosize=0;points=[];absoluteArcSize=1;shadow=1;strokeColor=#666666;fillColor=#FFFFFF;fontColor=#333333;connectable=0;gradientColor=#FFF2CC;" parent="1" vertex="1">
          <mxGeometry x="503" y="-144.5" width="127" height="87" as="geometry">
            <mxRectangle x="-98" y="-1230" width="99" height="26" as="alternateBounds" />
          </mxGeometry>
        </mxCell>
        <mxCell id="i6AOonY0CT-YcksU9l_V-21" value="" style="rounded=1;whiteSpace=wrap;html=1;sketch=0;points=[[0,0.5,0,0,0],[1,0.5,0,0,0]];arcSize=50;" parent="i6AOonY0CT-YcksU9l_V-20" vertex="1">
          <mxGeometry x="-13" y="36" width="39.25" height="25" as="geometry" />
        </mxCell>
        <mxCell id="i6AOonY0CT-YcksU9l_V-22" value="" style="rounded=1;whiteSpace=wrap;html=1;sketch=0;points=[[0,0.5,0,0,0],[1,0.5,0,0,0]];fillColor=#1ba1e2;fontColor=#ffffff;strokeColor=#006EAF;arcSize=50;" parent="i6AOonY0CT-YcksU9l_V-20" vertex="1">
          <mxGeometry x="107" y="20" width="35.25" height="25" as="geometry" />
        </mxCell>
        <mxCell id="hAjOqEyjSD74-ecobbq9-3" value="✗" style="rounded=1;whiteSpace=wrap;html=1;sketch=0;points=[[0,0.5,0,0,0],[1,0.5,0,0,0]];fillColor=#1ba1e2;fontColor=#ffffff;strokeColor=#006EAF;arcSize=50;fontFamily=Helvetica;fontSize=11;textOpacity=30;opacity=30;" vertex="1" parent="i6AOonY0CT-YcksU9l_V-20">
          <mxGeometry x="107" y="50" width="35.25" height="25" as="geometry" />
        </mxCell>
        <mxCell id="i6AOonY0CT-YcksU9l_V-23" value="$ wc -l" style="rounded=1;whiteSpace=wrap;html=1;sketch=0;container=1;recursiveResize=0;verticalAlign=top;arcSize=6;fontStyle=1;autosize=0;points=[];absoluteArcSize=1;shadow=1;strokeColor=#666666;fillColor=#FFFFFF;fontColor=#333333;connectable=0;gradientColor=#FFF2CC;" parent="1" vertex="1">
          <mxGeometry x="503" y="44" width="127" height="87" as="geometry">
            <mxRectangle x="-98" y="-1230" width="99" height="26" as="alternateBounds" />
          </mxGeometry>
        </mxCell>
        <mxCell id="i6AOonY0CT-YcksU9l_V-24" value="" style="rounded=1;whiteSpace=wrap;html=1;sketch=0;points=[[0,0.5,0,0,0],[1,0.5,0,0,0]];arcSize=50;" parent="i6AOonY0CT-YcksU9l_V-23" vertex="1">
          <mxGeometry x="-13" y="36" width="39.25" height="25" as="geometry" />
        </mxCell>
        <mxCell id="i6AOonY0CT-YcksU9l_V-25" value="" style="rounded=1;whiteSpace=wrap;html=1;sketch=0;points=[[0,0.5,0,0,0],[1,0.5,0,0,0]];fillColor=#1ba1e2;fontColor=#ffffff;strokeColor=#006EAF;arcSize=50;" parent="i6AOonY0CT-YcksU9l_V-23" vertex="1">
          <mxGeometry x="107" y="12" width="35.25" height="25" as="geometry" />
        </mxCell>
        <mxCell id="hAjOqEyjSD74-ecobbq9-4" value="✗" style="rounded=1;whiteSpace=wrap;html=1;sketch=0;points=[[0,0.5,0,0,0],[1,0.5,0,0,0]];fillColor=#1ba1e2;fontColor=#ffffff;strokeColor=#006EAF;arcSize=50;fontFamily=Helvetica;fontSize=11;textOpacity=30;opacity=30;" vertex="1" parent="i6AOonY0CT-YcksU9l_V-23">
          <mxGeometry x="107" y="52" width="35.25" height="25" as="geometry" />
        </mxCell>
        <mxCell id="i6AOonY0CT-YcksU9l_V-27" style="edgeStyle=orthogonalEdgeStyle;rounded=0;orthogonalLoop=1;jettySize=auto;html=1;strokeWidth=2;" parent="1" source="i6AOonY0CT-YcksU9l_V-22" target="i6AOonY0CT-YcksU9l_V-3" edge="1">
          <mxGeometry relative="1" as="geometry" />
        </mxCell>
        <mxCell id="hAjOqEyjSD74-ecobbq9-5" value="✗" style="rhombus;whiteSpace=wrap;html=1;rounded=1;fillColor=#0050ef;fontColor=#ffffff;strokeColor=#001DBC;fontStyle=1;glass=0;sketch=0;fontSize=12;points=[[0,0.5,0,0,0],[0.5,0,0,0,0],[0.5,1,0,0,0],[1,0.5,0,0,0]];shadow=1;opacity=30;textOpacity=30;" vertex="1" parent="1">
          <mxGeometry x="740" y="200" width="40" height="40" as="geometry" />
        </mxCell>
        <mxCell id="hAjOqEyjSD74-ecobbq9-6" style="edgeStyle=orthogonalEdgeStyle;rounded=1;orthogonalLoop=1;jettySize=auto;html=1;exitX=1;exitY=0.5;exitDx=0;exitDy=0;exitPerimeter=0;entryX=0;entryY=0.5;entryDx=0;entryDy=0;entryPerimeter=0;curved=0;opacity=30;" edge="1" parent="1" source="hAjOqEyjSD74-ecobbq9-4" target="hAjOqEyjSD74-ecobbq9-5">
          <mxGeometry relative="1" as="geometry" />
        </mxCell>
        <mxCell id="hAjOqEyjSD74-ecobbq9-7" style="edgeStyle=orthogonalEdgeStyle;curved=0;rounded=1;orthogonalLoop=1;jettySize=auto;html=1;exitX=1;exitY=0.5;exitDx=0;exitDy=0;exitPerimeter=0;entryX=0;entryY=0.5;entryDx=0;entryDy=0;entryPerimeter=0;opacity=30;strokeColor=default;align=center;verticalAlign=middle;fontFamily=Helvetica;fontSize=11;fontColor=default;labelBackgroundColor=default;endArrow=classic;" edge="1" parent="1" source="hAjOqEyjSD74-ecobbq9-3" target="hAjOqEyjSD74-ecobbq9-5">
          <mxGeometry relative="1" as="geometry" />
        </mxCell>
        <mxCell id="hAjOqEyjSD74-ecobbq9-8" style="edgeStyle=orthogonalEdgeStyle;curved=0;rounded=1;orthogonalLoop=1;jettySize=auto;html=1;exitX=1;exitY=0.5;exitDx=0;exitDy=0;exitPerimeter=0;entryX=0;entryY=0.5;entryDx=0;entryDy=0;entryPerimeter=0;opacity=30;strokeColor=default;align=center;verticalAlign=middle;fontFamily=Helvetica;fontSize=11;fontColor=default;labelBackgroundColor=default;endArrow=classic;" edge="1" parent="1" source="hAjOqEyjSD74-ecobbq9-2" target="hAjOqEyjSD74-ecobbq9-5">
          <mxGeometry relative="1" as="geometry">
            <Array as="points">
              <mxPoint x="380" y="23" />
              <mxPoint x="380" y="220" />
            </Array>
          </mxGeometry>
        </mxCell>
        <mxCell id="hAjOqEyjSD74-ecobbq9-9" value="ps" style="rhombus;whiteSpace=wrap;html=1;rounded=1;fontStyle=1;glass=0;sketch=0;fontSize=12;points=[[0,0.5,0,0,0],[0.5,0,0,0,0],[0.5,1,0,0,0],[1,0.5,0,0,0]];shadow=1;fillColor=#0050ef;fontColor=#ffffff;strokeColor=#001DBC;fontFamily=Helvetica;labelBackgroundColor=none;" vertex="1" parent="1">
          <mxGeometry x="740" y="-220" width="40" height="40" as="geometry" />
        </mxCell>
        <mxCell id="hAjOqEyjSD74-ecobbq9-12" style="edgeStyle=orthogonalEdgeStyle;curved=0;rounded=1;orthogonalLoop=1;jettySize=auto;html=1;exitX=1;exitY=0.5;exitDx=0;exitDy=0;exitPerimeter=0;entryX=0;entryY=0.5;entryDx=0;entryDy=0;entryPerimeter=0;strokeColor=default;strokeWidth=2;align=center;verticalAlign=middle;fontFamily=Helvetica;fontSize=11;fontColor=default;labelBackgroundColor=default;endArrow=classic;" edge="1" parent="1" source="i6AOonY0CT-YcksU9l_V-6" target="i6AOonY0CT-YcksU9l_V-21">
          <mxGeometry relative="1" as="geometry" />
        </mxCell>
        <mxCell id="hAjOqEyjSD74-ecobbq9-13" style="edgeStyle=orthogonalEdgeStyle;curved=0;rounded=1;orthogonalLoop=1;jettySize=auto;html=1;exitX=1;exitY=0.5;exitDx=0;exitDy=0;exitPerimeter=0;entryX=0;entryY=0.5;entryDx=0;entryDy=0;entryPerimeter=0;strokeColor=default;strokeWidth=2;align=center;verticalAlign=middle;fontFamily=Helvetica;fontSize=11;fontColor=default;labelBackgroundColor=default;endArrow=classic;" edge="1" parent="1" source="i6AOonY0CT-YcksU9l_V-6" target="i6AOonY0CT-YcksU9l_V-24">
          <mxGeometry relative="1" as="geometry" />
        </mxCell>
        <mxCell id="hAjOqEyjSD74-ecobbq9-14" value="wc" style="rhombus;whiteSpace=wrap;html=1;rounded=1;fontStyle=1;glass=0;sketch=0;fontSize=12;points=[[0,0.5,0,0,0],[0.5,0,0,0,0],[0.5,1,0,0,0],[1,0.5,0,0,0]];shadow=1;fillColor=#0050ef;fontColor=#ffffff;strokeColor=#001DBC;fontFamily=Helvetica;labelBackgroundColor=none;" vertex="1" parent="1">
          <mxGeometry x="740" y="48.5" width="40" height="40" as="geometry" />
        </mxCell>
        <mxCell id="hAjOqEyjSD74-ecobbq9-15" style="edgeStyle=orthogonalEdgeStyle;curved=0;rounded=1;orthogonalLoop=1;jettySize=auto;html=1;exitX=1;exitY=0.5;exitDx=0;exitDy=0;exitPerimeter=0;entryX=0;entryY=0.5;entryDx=0;entryDy=0;entryPerimeter=0;strokeColor=default;strokeWidth=2;align=center;verticalAlign=middle;fontFamily=Helvetica;fontSize=11;fontColor=default;labelBackgroundColor=default;endArrow=classic;" edge="1" parent="1" source="i6AOonY0CT-YcksU9l_V-25" target="hAjOqEyjSD74-ecobbq9-14">
          <mxGeometry relative="1" as="geometry" />
        </mxCell>
      </root>
    </mxGraphModel>
  </diagram>
  <diagram id="tdX2_95LEIDNDVLNdQ2E" name="...">
    <mxGraphModel dx="1114" dy="693" grid="1" gridSize="10" guides="1" tooltips="1" connect="1" arrows="1" fold="1" page="1" pageScale="1" pageWidth="850" pageHeight="1100" math="0" shadow="0">
      <root>
        <mxCell id="0" />
        <mxCell id="1" parent="0" />
      </root>
    </mxGraphModel>
  </diagram>
</mxfile>
